# xmcd CD database file
#
# Track frame offsets:
#	183
#	12983
#	29738
#	42695
#	57765
#	73273
#	88760
#	101420
#	118373
#	132085
#	147820
#	161623
#	176433
#	188375
#
# Disc length: 2666 seconds
#
# Revision: 1
# Processed by: cddbd v1.5.1PL0 Copyright (c) Steve Scherf et al.
# Submitted via: CDex 1.51
#
DISCID=c50a680e
DTITLE=Ben Steneker - Part Of Me
DYEAR=1991
DGENRE=Country
TTITLE0=She' Gone
TTITLE1=Part Of Me
TTITLE2=No More, No More (with Sandra Vanreys)
TTITLE3=For Sure For Certain
TTITLE4=Why Me (with Sandra Vanreys)
TTITLE5=Woodcarver (with Sandra Vanreys)
TTITLE6=Dog Gone, Baby's Back
TTITLE7=Anger And Tears
TTITLE8=Tryin' To Outrun The Wind
TTITLE9=Till Each Tear Becomes A Rose (wth Sandra Vanreys)
TTITLE10=I'll Be Faithfull To You
TTITLE11=Warm And Sweet Love
TTITLE12=I'd Rather Be Sorry with Sandra Vanreys)
TTITLE13=Merry-Go-Round
EXTD=With Sandra Vanreys YEAR: 1991
EXTT0=
EXTT1=
EXTT2=
EXTT3=
EXTT4=
EXTT5=
EXTT6=
EXTT7=
EXTT8=
EXTT9=
EXTT10=
EXTT11=
EXTT12=
EXTT13=
PLAYORDER=
